<svg width="62" height="62" viewBox="0 0 62 62" fill="none" xmlns="http://www.w3.org/2000/svg">
<path d="M62 62C62 57.929 61.1982 53.8979 59.6403 50.1368C58.0824 46.3757 55.7989 42.9583 52.9203 40.0797C50.0417 37.2011 46.6243 34.9176 42.8632 33.3597C39.1021 31.8018 35.071 31 31 31L31 62H62Z" fill="#1800F4"/>
<path d="M31 31C31 35.071 30.1982 39.1021 28.6403 42.8632C27.0824 46.6243 24.7989 50.0417 21.9203 52.9203C19.0417 55.7989 15.6243 58.0824 11.8632 59.6403C8.10209 61.1982 4.07098 62 0 62L1.35505e-06 31H31Z" fill="#1800F4"/>
<path d="M31 31C31 26.929 31.8018 22.8979 33.3597 19.1368C34.9176 15.3757 37.2011 11.9583 40.0797 9.07969C42.9583 6.20107 46.3757 3.91763 50.1368 2.35973C53.8979 0.801838 57.929 -1.77948e-07 62 0L62 31H31Z" fill="#1800F4"/>
<rect width="31" height="31" fill="#1800F4"/>
</svg>
